<svg width="71" height="68" viewBox="0 0 71 68" fill="none" xmlns="http://www.w3.org/2000/svg">
<g filter="url(#filter0_d_40_94)">
<path fill-rule="evenodd" clip-rule="evenodd" d="M45 24V40H28V24H45ZM45 14H23C20.2386 14 18 16.2386 18 19C18 19.1688 18.0084 19.3355 18.0247 19.5C18.0084 19.6645 18 19.8313 18 20V40H13V10H45V14ZM55 14V5C55 2.23858 52.7614 0 50 0H8C5.23858 0 3 2.23858 3 5C3 5.16875 3.00836 5.33555 3.02469 5.5C3.00836 5.66445 3 5.83125 3 6V45C3 47.7614 5.23858 50 8 50H18V59C18 61.7614 20.2386 64 23 64H65C67.7614 64 70 61.7614 70 59C70 58.8312 69.9916 58.6645 69.9753 58.5C69.9916 58.3356 70 58.1688 70 58V19C70 16.2386 67.7614 14 65 14H55ZM55 24V44C55 44.1688 54.9916 44.3356 54.9753 44.5C54.9916 44.6645 55 44.8312 55 45C55 47.7614 52.7614 50 50 50H28V54H60V24H55Z" fill="black"/>
</g>
<defs>
<filter id="filter0_d_40_94" x="0" y="0" width="71" height="68" filterUnits="userSpaceOnUse" color-interpolation-filters="sRGB">
<feFlood flood-opacity="0" result="BackgroundImageFix"/>
<feColorMatrix in="SourceAlpha" type="matrix" values="0 0 0 0 0 0 0 0 0 0 0 0 0 0 0 0 0 0 127 0" result="hardAlpha"/>
<feOffset dx="-1" dy="2"/>
<feGaussianBlur stdDeviation="1"/>
<feComposite in2="hardAlpha" operator="out"/>
<feColorMatrix type="matrix" values="0 0 0 0 0 0 0 0 0 0 0 0 0 0 0 0 0 0 0.25 0"/>
<feBlend mode="normal" in2="BackgroundImageFix" result="effect1_dropShadow_40_94"/>
<feBlend mode="normal" in="SourceGraphic" in2="effect1_dropShadow_40_94" result="shape"/>
</filter>
</defs>
</svg>
