<svg width="76" height="76" viewBox="0 0 76 76" fill="none" xmlns="http://www.w3.org/2000/svg">
<path fill-rule="evenodd" clip-rule="evenodd" d="M76 38C76 58.9868 58.9868 76 38 76C17.0132 76 0 58.9868 0 38C0 17.0132 17.0132 0 38 0C58.9868 0 76 17.0132 76 38ZM38 66.7142C35.2386 66.7142 33 64.4756 33 61.7142V33C33 30.2386 35.2386 28 38 28C40.7614 28 43 30.2386 43 33V61.7142C43 64.4756 40.7614 66.7142 38 66.7142ZM38 22C41.3137 22 44 19.3137 44 16C44 12.6863 41.3137 10 38 10C34.6863 10 32 12.6863 32 16C32 19.3137 34.6863 22 38 22Z" fill="black"/>
</svg>
