<svg width="48" height="48" viewBox="0 0 48 48" fill="none" xmlns="http://www.w3.org/2000/svg">
<g filter="url(#filter0_d_40_19)">
<path fill-rule="evenodd" clip-rule="evenodd" d="M12.4147 1.61531C10.261 -0.538434 6.76905 -0.538435 4.61531 1.6153C2.46157 3.76904 2.46158 7.26095 4.61532 9.41469L17.0456 21.8449L4.61531 34.2752C2.46157 36.4289 2.46156 39.9208 4.6153 42.0746C6.76904 44.2283 10.2609 44.2283 12.4147 42.0746L24.8449 29.6443L37.2752 42.0746C39.4289 44.2283 42.9208 44.2283 45.0746 42.0746C47.2283 39.9208 47.2283 36.4289 45.0746 34.2752L32.6443 21.8449L45.0746 9.41469C47.2283 7.26095 47.2283 3.76905 45.0746 1.61531C42.9208 -0.538426 39.4289 -0.538421 37.2752 1.61532L24.8449 14.0456L12.4147 1.61531Z" fill="#CF3737"/>
</g>
<defs>
<filter id="filter0_d_40_19" x="0" y="0" width="47.6899" height="47.6899" filterUnits="userSpaceOnUse" color-interpolation-filters="sRGB">
<feFlood flood-opacity="0" result="BackgroundImageFix"/>
<feColorMatrix in="SourceAlpha" type="matrix" values="0 0 0 0 0 0 0 0 0 0 0 0 0 0 0 0 0 0 127 0" result="hardAlpha"/>
<feOffset dx="-1" dy="2"/>
<feGaussianBlur stdDeviation="1"/>
<feComposite in2="hardAlpha" operator="out"/>
<feColorMatrix type="matrix" values="0 0 0 0 0 0 0 0 0 0 0 0 0 0 0 0 0 0 0.25 0"/>
<feBlend mode="normal" in2="BackgroundImageFix" result="effect1_dropShadow_40_19"/>
<feBlend mode="normal" in="SourceGraphic" in2="effect1_dropShadow_40_19" result="shape"/>
</filter>
</defs>
</svg>
