<svg width="76" height="72" viewBox="0 0 76 72" fill="none" xmlns="http://www.w3.org/2000/svg">
<path fill-rule="evenodd" clip-rule="evenodd" d="M30.7274 48.9356L32.678 50.9555C34.5307 52.8739 34.4773 55.9311 32.5588 57.7837C30.6403 59.6364 27.5832 59.583 25.7305 57.6646L17.2683 48.9017C15.582 47.1554 15.4748 44.4657 16.9159 42.5997C16.9243 42.5792 16.9328 42.5588 16.9415 42.5383L21.2496 32.3891C22.2917 29.9341 25.1267 28.7887 27.5817 29.8308C30.0367 30.8728 31.1821 33.7078 30.14 36.1628L29.5682 37.5098C29.969 37.5166 30.37 37.5499 30.7661 37.6092C33.1894 37.972 35.6768 37.8717 38.0935 37.2943C42.3504 36.2773 46.134 33.8408 48.821 30.3861C51.5081 26.9315 52.9384 22.6646 52.8763 18.2884C52.8411 15.8039 52.3261 13.3683 51.378 11.1089C50.1758 8.24391 50.4232 4.70836 52.8206 2.73208C55.2181 0.755808 58.8175 1.08001 60.3207 3.79913C62.7344 8.16523 64.055 13.0835 64.1265 18.1289C64.2248 25.0616 61.959 31.8211 57.7022 37.2939C53.4454 42.7668 47.4516 46.6266 40.708 48.2377C37.4186 49.0235 34.0466 49.2515 30.7274 48.9356Z" fill="black"/>
<rect x="0.679016" y="72" width="52" height="10" rx="5" transform="rotate(-90 0.679016 72)" fill="black"/>
<path d="M54 67C54 69.7614 51.7614 72 49 72L7 72C4.23858 72 2 69.7614 2 67C2 64.2386 4.23858 62 7 62L49 62C51.7614 62 54 64.2386 54 67Z" fill="black"/>
</svg>
