<svg width="81" height="65" viewBox="0 0 81 65" fill="none" xmlns="http://www.w3.org/2000/svg">
<g filter="url(#filter0_d_40_56)">
<path fill-rule="evenodd" clip-rule="evenodd" d="M10.6458 24.4598L10.0275 24.7287C7.58167 25.7921 4.73682 24.6715 3.67335 22.2257C2.60988 19.7799 3.7305 16.9351 6.17631 15.8716L17.3478 11.0141C19.3955 10.1237 21.7228 10.7643 23.0504 12.4317C23.1032 12.4818 23.1552 12.5332 23.2064 12.5858C23.3848 12.7689 23.5475 12.9609 23.6952 13.1606L30.9047 20.0022C32.8393 21.8381 32.9194 24.8946 31.0835 26.8292C29.2476 28.7638 26.1911 28.8438 24.2565 27.008L22.0986 24.9602C21.8025 25.9635 21.5871 26.9944 21.4571 28.0435C20.9189 32.387 21.8761 36.7842 24.1709 40.511C26.4658 44.2377 29.9616 47.0717 34.0824 48.5462C36.4219 49.3833 38.8836 49.7539 41.332 49.6571C44.4365 49.5343 47.6615 51.0043 48.673 53.942C49.6846 56.8796 48.1203 60.1376 45.047 60.5934C40.1121 61.3252 35.0428 60.8397 30.2918 59.1398C23.7638 56.8039 18.2259 52.3144 14.5904 46.4105C10.9549 40.5067 9.43856 33.5407 10.2912 26.66C10.3828 25.9204 10.5012 25.1866 10.6458 24.4598Z" fill="black"/>
<path fill-rule="evenodd" clip-rule="evenodd" d="M71.8634 36.4636L72.4818 36.1948C74.9276 35.1313 77.7725 36.2519 78.8359 38.6977C79.8994 41.1435 78.7788 43.9884 76.333 45.0518L65.1615 49.9093C63.1139 50.7997 60.7867 50.1592 59.4591 48.492C59.4062 48.4418 59.3541 48.3903 59.3028 48.3376C59.1243 48.1544 58.9616 47.9624 58.8139 47.7626L51.6045 40.9212C49.67 39.0853 49.5899 36.0288 51.4258 34.0942C53.2616 32.1596 56.3182 32.0796 58.2528 33.9154L60.4106 35.9632C60.7067 34.9599 60.9221 33.929 61.0521 32.8799C61.5903 28.5364 60.6331 24.1392 58.3383 20.4125C56.0434 16.6857 52.5476 13.8517 48.4268 12.3772C46.0874 11.5401 43.6256 11.1696 41.1772 11.2664C38.0727 11.3891 34.8477 9.91916 33.8362 6.98147C32.8246 4.04378 34.3889 0.785801 37.4622 0.330044C42.3971 -0.401764 47.4664 0.0836754 52.2174 1.78364C58.7454 4.11948 64.2833 8.60905 67.9188 14.5129C71.5543 20.4167 73.0706 27.3827 72.218 34.2635C72.1264 35.003 72.008 35.7368 71.8634 36.4636Z" fill="black"/>
</g>
<defs>
<filter id="filter0_d_40_56" x="0.271606" y="0" width="79.9661" height="64.9234" filterUnits="userSpaceOnUse" color-interpolation-filters="sRGB">
<feFlood flood-opacity="0" result="BackgroundImageFix"/>
<feColorMatrix in="SourceAlpha" type="matrix" values="0 0 0 0 0 0 0 0 0 0 0 0 0 0 0 0 0 0 127 0" result="hardAlpha"/>
<feOffset dx="-1" dy="2"/>
<feGaussianBlur stdDeviation="1"/>
<feComposite in2="hardAlpha" operator="out"/>
<feColorMatrix type="matrix" values="0 0 0 0 0 0 0 0 0 0 0 0 0 0 0 0 0 0 0.25 0"/>
<feBlend mode="normal" in2="BackgroundImageFix" result="effect1_dropShadow_40_56"/>
<feBlend mode="normal" in="SourceGraphic" in2="effect1_dropShadow_40_56" result="shape"/>
</filter>
</defs>
</svg>
